PathFileType	4	(X/Y/Z)	Kaydara																																																																																																																									
DataRate	CameraRate	NumFrames	NumMarkers	Units	OrigDataRate	OrigDataStartFrame	OrigNumFrames																																																																																																																					
30	30	8	41	mm	30	49	128																																																																																																																					
Frame#	Time	EMLA_LFHD			EMLA_RFHD			EMLA_LBHD			EMLA_RBHD			EMLA_LFTShould			EMLA_RFTShould			EMLA_LRRShould			EMLA_RRRShould			EMLA_T10			EMLA_STRN			EMLA_TRUN			EMLA_LSHO			EMLA_LUPA			EMLA_LELB			EMLA_LFRM			EMLA_LWRA			EMLA_LWRB			EMLA_LFIN			EMLA_RSHO			EMLA_RUPA			EMLA_RELB			EMLA_RFRM			EMLA_RWRA			EMLA_RWRB			EMLA_RFIN			EMLA_LFWT			EMLA_RFWT			EMLA_LBWT			EMLA_RBWT			EMLA_LTHI			EMLA_LKNE			EMLA_LSHN			EMLA_LANK			EMLA_LHEE			EMLA_LTOE			EMLA_RTHI			EMLA_RKNE			EMLA_RSHN			EMLA_RANK			EMLA_RHEE			EMLA_RTOE		
		X1	Y1	Z1	X2	Y2	Z2	X3	Y3	Z3	X4	Y4	Z4	X5	Y5	Z5	X6	Y6	Z6	X7	Y7	Z7	X8	Y8	Z8	X9	Y9	Z9	X10	Y10	Z10	X11	Y11	Z11	X12	Y12	Z12	X13	Y13	Z13	X14	Y14	Z14	X15	Y15	Z15	X16	Y16	Z16	X17	Y17	Z17	X18	Y18	Z18	X19	Y19	Z19	X20	Y20	Z20	X21	Y21	Z21	X22	Y22	Z22	X23	Y23	Z23	X24	Y24	Z24	X25	Y25	Z25	X26	Y26	Z26	X27	Y27	Z27	X28	Y28	Z28	X29	Y29	Z29	X30	Y30	Z30	X31	Y31	Z31	X32	Y32	Z32	X33	Y33	Z33	X34	Y34	Z34	X35	Y35	Z35	X36	Y36	Z36	X37	Y37	Z37	X38	Y38	Z38	X39	Y39	Z39	X40	Y40	Z40	X41	Y41	Z41
																																																																																																																												
49	1.61	314.27746	1641.11404	-1672.13348	142.21471	1633.87329	-1678.70422	333.51906	1620.91934	-1819.86038	139.19098	1614.92767	-1829.43558	315.98083	1400.13092	-1727.64053	166.53847	1389.93622	-1729.39484	314.55603	1460.5368	-1871.4267	159.11672	1451.91696	-1874.3309	252.45964	1290.24826	-1936.38916	240.9897	1325.26886	-1697.63214	239.00875	1219.86267	-1692.22275	441.59306	1432.29721	-1774.90509	507.15919	1254.51576	-1776.29974	533.1139	1112.30507	-1759.93225	507.55741	978.36166	-1715.01923	384.4875	885.17807	-1610.14481	444.91135	840.05905	-1652.78442	424.6357	827.24899	-1586.77094	47.6205	1428.25897	-1798.26141	-20.29057	1246.99501	-1851.86951	-44.71069	1118.09921	-1908.38623	-54.95758	1022.34528	-1940.22125	-29.35728	832.56592	-1872.44873	-60.13431	838.24554	-1952.80334	-86.63474	796.68716	-1910.61066	348.33698	975.92987	-1768.47351	113.51469	986.39931	-1767.84409	308.37372	1025.15602	-1966.96045	132.60653	1022.64473	-1950.5246	350.8004	747.47101	-2000.8609	362.84027	538.87287	-1996.77094	335.31425	355.73639	-2025.07309	332.07909	200.97332	-2137.40845	267.25651	141.40531	-2214.44992	283.86185	73.95768	-2028.9621	73.84974	703.0896	-1879.21219	49.84451	535.73952	-1737.92877	101.25072	309.85086	-1764.702	77.87292	168.56663	-1881.59012	143.96174	126.65783	-1934.91562	78.03967	86.99842	-1750.19394
50	1.643	309.60356	1640.56351	-1640.60333	138.138	1632.65182	-1648.7677	330.60982	1621.5654	-1788.54721	136.4104	1614.95529	-1799.85138	310.98574	1401.8457	-1698.82507	162.46496	1392.34543	-1701.40274	311.985	1462.74963	-1840.86166	157.2341	1454.552	-1844.63089	250.15575	1294.29428	-1909.36279	236.32811	1326.2854	-1670.54733	234.62814	1220.98541	-1665.90912	437.10945	1434.09729	-1743.64609	503.24863	1257.41188	-1743.3284	528.79616	1115.49255	-1725.01678	501.21029	981.58897	-1677.33521	375.29758	892.72797	-1571.19675	435.10174	845.85785	-1612.57126	414.45339	834.51477	-1546.67023	45.24892	1431.02509	-1770.26596	-23.17299	1252.06459	-1829.3602	-46.12706	1124.77814	-1890.29785	-56.14321	1030.21698	-1925.8107	-34.62316	837.78839	-1864.56619	-62.75618	846.81084	-1945.61844	-90.35937	803.58582	-1906.18103	347.02518	978.36273	-1746.73355	111.92739	988.13957	-1745.96786	305.3236	1027.47566	-1944.34402	130.60535	1024.19022	-1927.82242	347.9818	752.12029	-1981.82617	362.93106	543.43418	-1981.98227	336.21262	360.41313	-2013.89069	334.60831	207.96749	-2129.08768	270.32022	150.68515	-2208.27194	284.33016	73.94028	-2027.00943	73.32357	705.23323	-1853.00751	52.68075	539.66843	-1707.84943	101.83612	311.09457	-1704.93301	76.08348	154.71982	-1799.17297	141.05672	105.80412	-1847.24625	79.55324	89.82332	-1657.09274
51	1.677	304.92786	1633.42194	-1608.24814	133.37929	1625.43533	-1618.08792	327.21802	1615.32578	-1756.15005	133.15027	1608.54218	-1768.9502	304.91985	1397.66373	-1669.20303	158.37279	1387.42737	-1672.68784	308.97051	1458.55804	-1808.74969	154.74715	1450.64957	-1813.7912	247.45024	1291.88538	-1881.44257	231.32462	1320.15671	-1641.84189	229.7542	1214.65141	-1639.46442	432.04868	1428.97797	-1710.70755	498.91136	1253.40553	-1709.19449	524.59408	1111.56021	-1689.01108	494.71977	978.3847	-1637.98096	365.65491	894.8616	-1530.53391	425.22091	845.97595	-1570.05463	403.13133	836.2944	-1504.29077	41.91724	1426.99112	-1741.20193	-27.12597	1249.9781	-1804.54285	-49.02589	1124.28734	-1869.37881	-59.14238	1030.99823	-1908.05145	-40.68507	836.34804	-1852.21817	-66.95066	848.36586	-1933.59039	-95.22991	803.68408	-1896.57898	345.56778	974.04678	-1723.66272	110.09015	983.77274	-1723.12332	302.49584	1023.53943	-1920.39368	128.48016	1018.66249	-1904.81003	347.31426	750.58487	-1961.85944	361.87588	541.59657	-1966.9397	334.90547	359.77833	-2004.26285	333.80737	210.32637	-2123.61099	269.48994	155.50323	-2204.81522	283.87865	73.67564	-2026.11237	73.74045	700.11429	-1825.71777	54.62617	537.57442	-1675.01633	102.38396	311.84603	-1643.11691	72.60935	143.82466	-1712.48642	136.15961	88.16699	-1755.05264	81.07552	98.06143	-1562.58652
52	1.71	300.5061	1619.85535	-1575.05447	129.14287	1611.91498	-1585.55649	323.52493	1602.22107	-1722.7829	129.53816	1595.7988	-1736.66306	299.44056	1384.1983	-1637.49786	153.19689	1373.36594	-1642.05551	305.56042	1447.47528	-1775.87494	151.44768	1439.33685	-1782.40906	244.8628	1282.3085	-1852.69974	226.14328	1305.39948	-1612.32605	224.73837	1199.91554	-1612.65442	427.16606	1416.28464	-1676.56296	494.47365	1241.32545	-1673.36075	520.70778	1099.67384	-1651.18362	488.22987	968.05016	-1596.62796	355.92365	890.33401	-1488.11981	414.80461	839.08096	-1525.35217	391.8491	832.00874	-1459.69742	37.94433	1414.70474	-1711.26785	-31.92742	1239.08707	-1778.35388	-53.77404	1115.08934	-1845.93155	-64.24265	1022.90375	-1886.86905	-47.64524	826.76399	-1835.34302	-73.26131	841.06232	-1916.71173	-101.80712	795.44235	-1881.23337	342.52754	962.12387	-1698.30597	106.8014	972.87735	-1699.30573	301.12219	1012.67494	-1895.30304	126.53295	1007.08298	-1881.40411	346.68808	744.43695	-1941.48132	359.58508	535.91106	-1953.72314	332.22275	355.72395	-1996.99844	330.93216	209.75651	-2120.77301	266.46112	157.30959	-2203.77731	282.98578	73.32217	-2026.44135	73.1862	689.81155	-1795.80414	54.98839	532.25758	-1637.81647	101.90886	312.64484	-1580.81238	68.41699	137.52894	-1626.73767	129.93248	77.50703	-1664.65759	83.81676	105.69568	-1471.52481
53	1.743	295.53604	1602.40219	-1540.20203	124.57676	1594.80148	-1551.54099	319.46898	1584.99268	-1687.92755	125.48655	1578.62885	-1702.73224	295.74644	1362.02362	-1601.85974	147.40298	1352.92603	-1609.71237	302.46233	1431.7305	-1740.63187	146.8189	1422.81921	-1749.45496	242.69659	1267.89902	-1822.52335	220.49671	1285.01312	-1581.19293	219.31549	1179.73038	-1584.58344	422.92183	1397.56546	-1640.99838	490.06924	1222.20795	-1635.98404	516.32896	1080.91171	-1610.3894	481.43158	951.38626	-1553.61923	346.20941	878.66249	-1445.59967	404.70528	824.96193	-1480.0174	381.06552	821.35307	-1414.22806	32.67664	1395.70602	-1679.59213	-37.32636	1220.55748	-1750.09399	-59.88197	1098.10104	-1819.4017	-70.75485	1006.94229	-1861.79947	-54.88073	809.90952	-1813.86856	-80.75596	825.84412	-1894.99588	-109.56492	779.87297	-1860.05753	337.37679	946.04988	-1670.03571	102.23506	957.92213	-1673.15186	299.64031	997.82043	-1868.09692	123.65361	991.46477	-1856.51047	344.51221	737.35397	-1920.32867	357.4918	529.66396	-1942.10129	329.86885	350.99899	-1990.80017	328.9674	208.60126	-2118.82523	264.74644	158.28264	-2203.71246	282.18918	73.14914	-2027.34665	70.98408	675.65186	-1762.04239	53.68825	525.19646	-1595.89279	100.33369	312.9443	-1519.67041	64.36449	134.12968	-1547.3793	124.68113	71.75028	-1581.22818	85.75897	112.2864	-1388.57361
54	1.777	289.91419	1584.37408	-1503.33572	118.84146	1577.14264	-1515.42557	314.58015	1566.19278	-1650.83588	120.76292	1560.20126	-1666.66611	289.46781	1341.40762	-1564.54971	141.3878	1331.22086	-1575.18021	298.4145	1415.42007	-1702.42462	142.14194	1405.85815	-1713.43628	240.29913	1252.77412	-1788.52493	214.4104	1263.18672	-1546.67923	213.3963	1158.20198	-1552.36618	417.67273	1378.06152	-1600.97656	483.92815	1201.60507	-1596.10916	509.49909	1060.80635	-1566.56769	474.07936	932.74239	-1510.27634	337.9586	860.59563	-1405.30457	397.12395	805.30296	-1437.08878	372.56668	805.38147	-1370.81573	26.93422	1375.84991	-1645.4689	-42.29845	1198.99391	-1717.56317	-65.84775	1077.49771	-1786.61865	-76.9524	988.19023	-1830.23407	-61.60396	790.53177	-1786.48697	-88.31789	807.98721	-1867.18323	-117.47533	762.03423	-1832.40265	331.20193	929.86336	-1639.37424	97.11016	941.80206	-1644.05533	296.23178	982.27806	-1838.13736	119.00231	975.26939	-1828.37128	342.5473	730.44106	-1896.19492	355.58338	523.51334	-1927.30118	328.1218	346.82545	-1982.11151	327.98599	208.76219	-2115.20493	264.46104	161.58316	-2202.0903	281.56818	72.81054	-2027.8862	67.17726	662.03003	-1722.46506	51.22007	518.6792	-1549.30344	98.50596	311.55235	-1462.46155	62.66347	131.75292	-1478.21274	121.97607	67.48514	-1510.12192	86.4953	117.84868	-1319.17618
55	1.81	282.76867	1570.03159	-1463.66882	112.10871	1563.47809	-1476.85394	308.30822	1549.99374	-1610.76508	114.60302	1544.6637	-1627.79602	282.77899	1323.61359	-1522.59766	133.89345	1313.87115	-1536.54602	293.1039	1402.53403	-1659.4989	136.74269	1391.75583	-1674.46579	237.67906	1239.67491	-1749.70245	206.69165	1245.55557	-1507.4234	206.13985	1140.66666	-1514.33319	409.34464	1362.68494	-1554.44305	474.38419	1186.30798	-1550.52017	500.14626	1046.75842	-1522.4823	467.39914	916.092	-1469.25842	332.41116	838.94302	-1368.52432	392.74765	784.1391	-1398.29498	367.94899	785.99968	-1331.95053	20.4359	1360.35431	-1608.76724	-45.92392	1181.78055	-1679.26025	-69.86588	1059.58969	-1746.9838	-81.27238	971.90002	-1790.98068	-66.99841	773.53973	-1750.78583	-95.28178	792.69936	-1830.4837	-124.59161	746.55945	-1795.8699	324.80133	917.49916	-1605.25101	90.89714	928.8311	-1609.41071	289.95708	968.01704	-1804.45313	112.47238	961.69266	-1794.68964	340.37899	725.02678	-1866.15707	353.34137	518.75782	-1904.47693	326.76067	344.48845	-1966.8222	328.02574	212.62678	-2106.5715	265.25715	170.19741	-2195.67383	281.39919	72.52155	-2027.10312	65.92585	651.88736	-1678.94913	47.13865	513.95954	-1499.44382	97.06656	307.77721	-1412.07214	62.41889	127.88178	-1425.93781	122.06458	63.7254	-1458.32596	86.30595	115.03288	-1267.71713
56	1.843	273.56474	1562.91153	-1420.81711	103.11537	1556.66885	-1435.18906	300.22909	1540.83984	-1567.49619	106.69641	1536.1293	-1586.06537	272.35353	1315.30807	-1475.92453	124.57614	1305.43091	-1492.7536	286.51888	1395.49545	-1612.72614	129.55615	1383.20023	-1630.75912	232.21811	1232.47383	-1704.45297	197.06034	1237.03728	-1462.01309	196.5766	1132.14088	-1469.2543	399.45683	1353.83865	-1503.34763	464.13166	1176.96938	-1500.19577	490.11868	1037.23885	-1477.99301	461.86913	904.13399	-1431.4537	330.52654	816.92451	-1335.71945	392.70889	765.33615	-1366.76071	368.19935	764.94705	-1300.38605	11.77455	1351.2114	-1567.16263	-51.11534	1170.48309	-1637.285	-73.16312	1047.19551	-1701.76224	-84.11629	959.75319	-1744.87778	-72.23015	760.79224	-1703.55972	-98.96005	780.81459	-1784.0889	-129.40179	735.09048	-1749.70657	319.55812	908.82813	-1564.22913	85.41615	920.96008	-1566.12259	282.03672	958.01491	-1762.39334	104.87389	954.58359	-1751.47324	334.37393	721.6172	-1828.52921	350.98732	515.91244	-1871.21002	326.04137	344.3668	-1942.71103	329.2823	221.19623	-2090.25742	266.97405	185.79231	-2180.97733	281.47785	71.83479	-2024.08768	62.95159	646.27609	-1631.90842	42.72254	511.23798	-1450.74463	96.19291	300.1865	-1372.97638	64.09459	120.59959	-1396.67267	124.16228	59.36213	-1433.43124	87.97095	100.82227	-1240.40085
